<?xml version="1.0" standalone="no"?><!DOCTYPE svg PUBLIC "-//W3C//DTD SVG 1.1//EN"
        "http://www.w3.org/Graphics/SVG/1.1/DTD/svg11.dtd">
<svg class="icon" width="16px" height="16.00px" viewBox="0 0 1024 1024" version="1.1"
     xmlns="http://www.w3.org/2000/svg">
    <path d="M39.384615 374.153846c0 114.215385 45.292308 222.523077 126.03077 303.261539 17.723077 17.723077 43.323077 17.723077 61.046153 0 17.723077-17.723077 17.723077-45.292308 0-63.015385-63.015385-63.015385-98.461538-149.661538-98.461538-240.246154s35.446154-177.230769 98.461538-240.246154c17.723077-17.723077 17.723077-45.292308 0-63.015384-17.723077-17.723077-43.323077-17.723077-61.046153 0C84.676923 151.630769 39.384615 259.938462 39.384615 374.153846z m250.092308 177.230769c17.723077 17.723077 45.292308 17.723077 63.015385 0 17.723077-17.723077 17.723077-45.292308 0-63.015384-29.538462-29.538462-47.261538-70.892308-47.261539-114.215385 0-43.323077 15.753846-82.707692 47.261539-114.215384 17.723077-17.723077 17.723077-45.292308 0-63.015385-17.723077-17.723077-45.292308-17.723077-63.015385 0-47.261538 47.261538-72.861538 110.276923-72.861538 177.230769 0 66.953846 25.6 129.969231 72.861538 177.230769zM856.615385 70.892308c-17.723077-17.723077-45.292308-17.723077-63.015385 0-17.723077 17.723077-17.723077 45.292308 0 63.015384 63.015385 63.015385 100.430769 149.661538 100.430769 240.246154s-35.446154 177.230769-100.430769 240.246154c-17.723077 17.723077-17.723077 45.292308 0 63.015385 17.723077 17.723077 45.292308 17.723077 63.015385 0 80.738462-80.738462 126.030769-189.046154 126.030769-303.261539 0-114.215385-45.292308-222.523077-126.030769-303.261538zM805.415385 374.153846c-1.969231-66.953846-27.569231-129.969231-74.83077-177.230769-17.723077-17.723077-43.323077-17.723077-61.046153 0-17.723077 17.723077-17.723077 45.292308 0 63.015385 29.538462 31.507692 47.261538 70.892308 47.261538 114.215384 0 43.323077-17.723077 84.676923-47.261538 114.215385-17.723077 17.723077-17.723077 45.292308 0 63.015384 17.723077 17.723077 43.323077 17.723077 61.046153 0 47.261538-47.261538 72.861538-110.276923 72.861539-177.230769zM466.707692 480.492308c-43.323077-17.723077-70.892308-59.076923-70.892307-108.307693 0-63.015385 51.2-114.215385 114.215384-114.215384 63.015385 0 116.184615 51.2 116.184616 114.215384 0 49.230769-29.538462 88.615385-70.892308 106.338462v464.738461c0 11.815385-11.815385 23.630769-23.630769 21.661539h-43.323077c-11.815385 0-21.661538-9.846154-21.661539-21.661539V480.492308z"
          fill="#e6e6e6"/>
</svg>