<?xml version="1.0" standalone="no"?><!DOCTYPE svg PUBLIC "-//W3C//DTD SVG 1.1//EN" "http://www.w3.org/Graphics/SVG/1.1/DTD/svg11.dtd"><svg class="icon" width="16px" height="16.00px" viewBox="0 0 1024 1024" version="1.1" xmlns="http://www.w3.org/2000/svg"><path d="M597.795527 511.488347 813.564755 295.718095c23.833825-23.833825 23.833825-62.47489 0.001023-86.307691-23.832801-23.832801-62.47489-23.833825-86.307691 0L511.487835 425.180656 295.717583 209.410404c-23.833825-23.833825-62.475913-23.833825-86.307691 0-23.832801 23.832801-23.833825 62.47489 0 86.308715l215.769228 215.769228L209.410915 727.258599c-23.833825 23.833825-23.833825 62.47489 0 86.307691 23.832801 23.833825 62.473867 23.833825 86.307691 0l215.768205-215.768205 215.769228 215.769228c23.834848 23.833825 62.475913 23.832801 86.308715 0 23.833825-23.833825 23.833825-62.47489 0-86.307691L597.795527 511.488347z" /></svg>