<?xml version="1.0" standalone="no"?><!DOCTYPE svg PUBLIC "-//W3C//DTD SVG 1.1//EN"
        "http://www.w3.org/Graphics/SVG/1.1/DTD/svg11.dtd">
<svg class="icon" width="16px" height="16.00px" viewBox="0 0 1024 1024" version="1.1"
     xmlns="http://www.w3.org/2000/svg">
    <path d="M317.152 762.848l44.576-80.576q-49.728-36-77.728-90.848t-28-116q0-69.152 34.848-128.576-130.848 66.848-217.728 201.728 95.424 147.424 244 214.272zM539.424 329.152q0-11.424-8-19.424t-19.424-8q-71.424 0-122.56 51.136t-51.136 122.56q0 11.424 8 19.424t19.424 8 19.424-8 8-19.424q0-49.152 34.848-84t84-34.848q11.424 0 19.424-8t8-19.424zM746.848 220q0 4-0.576 5.152-60 107.424-180 323.424t-180.576 324l-28 50.848q-5.728 9.152-16 9.152-6.848 0-76.576-40-9.152-5.728-9.152-16 0-6.848 25.152-49.728-81.728-37.152-150.56-98.848t-119.136-140q-11.424-17.728-11.424-39.424t11.424-39.424q87.424-134.272 217.152-212t283.424-77.728q50.848 0 102.848 9.728l30.848-55.424q5.728-9.152 16-9.152 2.848 0 10.272 3.424t17.728 8.864 18.848 10.56 18.016 10.56 11.136 6.56q9.152 5.728 9.152 15.424zM768 475.424q0 79.424-45.152 144.864t-119.424 94.016l160-286.848q4.576 25.728 4.576 48zM1024 548.576q0 20-11.424 39.424-22.272 36.576-62.272 82.848-85.728 98.272-198.56 152.576t-239.712 54.272l42.272-75.424q121.152-10.272 224.288-78.272t172.288-175.424q-65.728-102.272-161.152-168l36-64q54.272 36.576 104.288 87.424t82.56 105.152q11.424 19.424 11.424 39.424z"
          fill="#e6e6e6"/>
</svg>