<?xml version="1.0" standalone="no"?><!DOCTYPE svg PUBLIC "-//W3C//DTD SVG 1.1//EN" "http://www.w3.org/Graphics/SVG/1.1/DTD/svg11.dtd"><svg class="icon" width="16px" height="16.00px" viewBox="0 0 1024 1024" version="1.1" xmlns="http://www.w3.org/2000/svg"><path d="M512 256c-163.8 0-291.4 97.6-448 256 134.8 135.4 248 256 448 256 199.8 0 346.8-152.8 448-253.2C856.4 397.2 709.6 256 512 256zM512 694.6c-98.8 0-179.2-82-179.2-182.6 0-100.8 80.4-182.6 179.2-182.6s179.2 82 179.2 182.6C691.2 612.8 610.8 694.6 512 694.6z" fill="#e6e6e6" /><path d="M512 448c0-15.8 5.8-30.2 15.2-41.4-5-0.8-10-1.2-15.2-1.2-57.6 0-104.6 47.8-104.6 106.6 0 58.8 47 106.6 104.6 106.6s104.6-47.8 104.6-106.6c0-4.6-0.4-9.2-0.8-13.8-11 8.6-24.6 13.8-39.6 13.8C540.6 512 512 483.4 512 448z" fill="#e6e6e6" /></svg>