<?xml version="1.0" standalone="no"?><!DOCTYPE svg PUBLIC "-//W3C//DTD SVG 1.1//EN" "http://www.w3.org/Graphics/SVG/1.1/DTD/svg11.dtd"><svg class="icon" width="13px" height="13.00px" viewBox="0 0 1024 1024" version="1.1" xmlns="http://www.w3.org/2000/svg"><path d="M507.904 60.416q93.184-1.024 175.104 33.792t143.872 94.72 97.792 141.312 36.864 174.592q1.024 88.064-30.208 165.888t-87.04 137.728-131.072 98.816-162.304 48.128q-22.528 3.072-48.128 5.12t-56.832 3.072-69.632 0-86.528-6.144q-106.496-10.24-158.208-26.624t-41.472-18.432q54.272-9.216 93.184-29.696 20.48-11.264 16.896-32.256t-19.968-39.424q-52.224-57.344-84.48-133.632t-34.304-164.352q-1.024-93.184 33.792-175.104t95.232-143.36 142.336-97.28 175.104-36.864zM707.584 510.976q0 26.624 18.432 45.568t45.056 18.944 45.568-18.944 18.944-45.568-18.944-45.056-45.568-18.432-45.056 18.432-18.432 45.056zM450.56 510.976q0 26.624 19.456 46.08t46.08 19.456q27.648 0 46.592-19.456t18.944-46.08q0-27.648-18.944-46.592t-46.592-18.944q-26.624 0-46.08 18.944t-19.456 46.592zM196.608 509.952q0 26.624 18.944 46.08t45.568 19.456q27.648 0 46.592-19.456t18.944-46.08-18.944-45.568-46.592-18.944q-26.624 0-45.568 18.944t-18.944 45.568z" fill="#A1A1A1" /></svg>