<?xml version="1.0" standalone="no"?>
<!DOCTYPE svg PUBLIC "-//W3C//DTD SVG 1.1//EN" "http://www.w3.org/Graphics/SVG/1.1/DTD/svg11.dtd">
<svg class="icon" width="16px" height="16px" viewBox="0 0 1024 1024" version="1.1"
     xmlns="http://www.w3.org/2000/svg">
    <path d="M810.249815 118.523129H216.937595c-54.387508 0-98.884066 44.498514-98.884066 98.884066v593.31222c0 54.389465 44.496558 98.884066 98.884066 98.884066h593.31222c54.385551 0 98.884066-44.494601 98.884066-98.884066V217.407195c0-54.387508-44.498514-98.884066-98.884066-98.884066z m-494.428154 98.884066c54.387508 0 98.884066 44.500471 98.884065 98.886022 0 54.389465-44.496558 98.886022-98.884065 98.886022-54.385551 0-98.884066-44.494601-98.884066-98.886022 0-54.385551 44.498514-98.886022 98.884066-98.886022zM181.451487 838.071659V757.210451l75.040126-118.66401c34.609521-44.496558 71.013305-44.496558 105.624782-4.94254l173.047604 212.599665H181.451487v-8.131907z m659.337982 8.133864H614.086151l-98.886023-128.551047 150.794434-207.657124c34.609521-44.498514 80.853382-44.498514 115.464859 0l64.274545 84.050575v252.157596h-4.944497z"
          fill="#e6e6e6"/>
</svg>