<?xml version="1.0" standalone="no"?><!DOCTYPE svg PUBLIC "-//W3C//DTD SVG 1.1//EN" "http://www.w3.org/Graphics/SVG/1.1/DTD/svg11.dtd"><svg class="icon" width="16px" height="16.00px" viewBox="0 0 1024 1024" version="1.1" xmlns="http://www.w3.org/2000/svg"><path d="M749.714286 512a36.205714 36.205714 0 0 1-10.861715 25.709714l-310.857142 310.857143A36.425143 36.425143 0 0 1 402.285714 859.428571c-20.004571 0-36.571429-16.566857-36.571428-36.571428V658.285714H109.714286c-20.004571 0-36.571429-16.566857-36.571429-36.571428v-219.428572c0-20.004571 16.566857-36.571429 36.571429-36.571428h256V201.142857c0-20.004571 16.566857-36.571429 36.571428-36.571428a36.205714 36.205714 0 0 1 25.709715 10.861714l310.857142 310.857143A36.425143 36.425143 0 0 1 749.714286 512zM950.857143 310.857143v402.285714c0 90.843429-73.728 164.571429-164.571429 164.571429h-182.857143a18.797714 18.797714 0 0 1-18.285714-18.285715c0-16.018286-7.424-54.857143 18.285714-54.857142h182.857143c50.285714 0 91.428571-41.142857 91.428572-91.428572v-402.285714C877.714286 260.571429 836.571429 219.428571 786.285714 219.428571H621.714286c-14.299429 0-36.571429 2.852571-36.571429-18.285714 0-16.018286-7.424-54.857143 18.285714-54.857143h182.857143C877.129143 146.285714 950.857143 220.013714 950.857143 310.857143z" fill="#e6e6e6" /></svg>