<?xml version="1.0" standalone="no"?><!DOCTYPE svg PUBLIC "-//W3C//DTD SVG 1.1//EN" "http://www.w3.org/Graphics/SVG/1.1/DTD/svg11.dtd"><svg class="icon" width="16px" height="16.00px" viewBox="0 0 1024 1024" version="1.1" xmlns="http://www.w3.org/2000/svg"><path d="M620.8 611.2c67.2-38.4 115.2-112 115.2-195.2 0-124.8-99.2-224-224-224s-224 99.2-224 224c0 83.2 44.8 156.8 115.2 195.2-89.6 35.2-156.8 115.2-179.2 211.2-3.2 16 6.4 35.2 25.6 38.4H256c16 0 28.8-9.6 32-25.6 22.4-105.6 115.2-182.4 224-182.4s201.6 76.8 224 182.4c3.2 16 19.2 28.8 38.4 25.6 16-3.2 28.8-19.2 25.6-38.4-22.4-96-89.6-176-179.2-211.2zM352 416c0-89.6 70.4-160 160-160s160 70.4 160 160-70.4 160-160 160-160-70.4-160-160zM992 630.4c-12.8-64-54.4-115.2-118.4-144 35.2-32 54.4-76.8 54.4-128C928 265.6 857.6 192 768 192c-19.2 0-32 12.8-32 32s12.8 32 32 32c54.4 0 96 44.8 96 102.4 0 51.2-28.8 89.6-73.6 99.2-16 3.2-28.8 22.4-22.4 38.4 0 16 9.6 28.8 25.6 28.8 70.4 12.8 118.4 54.4 131.2 115.2 3.2 16 16 25.6 32 25.6h6.4c19.2 0 32-16 28.8-35.2zM252.8 499.2c6.4-19.2-6.4-35.2-22.4-41.6C188.8 448 160 409.6 160 358.4 163.2 300.8 201.6 256 256 256c19.2 0 32-12.8 32-32s-16-32-32-32c-89.6 0-156.8 70.4-156.8 166.4 0 51.2 19.2 96 51.2 128-60.8 28.8-105.6 80-118.4 144-3.2 16 6.4 35.2 25.6 38.4H64c16 0 28.8-9.6 32-25.6 12.8-60.8 60.8-102.4 131.2-115.2 16 0 25.6-12.8 25.6-28.8z" fill="#666666" /></svg>