<?xml version="1.0" standalone="no"?><!DOCTYPE svg PUBLIC "-//W3C//DTD SVG 1.1//EN" "http://www.w3.org/Graphics/SVG/1.1/DTD/svg11.dtd"><svg class="icon" width="16px" height="16.00px" viewBox="0 0 1024 1024" version="1.1" xmlns="http://www.w3.org/2000/svg"><path d="M512 85.333333C280.704 85.333333 85.333333 280.704 85.333333 512c0 136.064 67.925333 259.328 170.666667 338.090667V853.333333h4.352C331.52 906.453333 418.688 938.666667 512 938.666667s180.48-32.213333 251.648-85.333334H768v-3.242666c102.741333-78.762667 170.666667-201.984 170.666667-338.090667 0-231.296-195.370667-426.666667-426.666667-426.666667zM343.253333 806.784C352.682667 720.341333 409.856 640 512 640s159.317333 80.341333 168.746667 166.784C630.570667 836.138667 572.928 853.333333 512 853.333333s-118.570667-17.194667-168.746667-46.549333zM426.666667 469.333333c0-50.261333 35.072-85.333333 85.333333-85.333333s85.333333 35.072 85.333333 85.333333-35.072 85.333333-85.333333 85.333334-85.333333-35.072-85.333333-85.333334z m329.984 277.674667c-19.328-69.76-62.336-126.165333-119.936-159.402667C665.344 557.354667 682.666667 516.266667 682.666667 469.333333c0-97.28-73.386667-170.666667-170.666667-170.666666s-170.666667 73.386667-170.666667 170.666666c0 46.933333 17.322667 88.021333 45.909334 118.229334-57.6 33.237333-100.565333 89.685333-119.936 159.402666C207.914667 685.269333 170.666667 602.112 170.666667 512c0-185.045333 156.288-341.333333 341.333333-341.333333s341.333333 156.288 341.333333 341.333333c0 90.112-37.248 173.269333-96.682666 235.008z"  /></svg>