<?xml version="1.0" standalone="no"?><!DOCTYPE svg PUBLIC "-//W3C//DTD SVG 1.1//EN" "http://www.w3.org/Graphics/SVG/1.1/DTD/svg11.dtd"><svg class="icon" width="16px" height="16.00px" viewBox="0 0 1024 1024" version="1.1" xmlns="http://www.w3.org/2000/svg"><path d="M512 64.128c-247.424 0-448 200.512-448 447.936S264.576 960 512 960s448-200.512 448-447.936S759.424 64.128 512 64.128zM827.776 774.336c-40.96-17.152-137.6-50.624-197.44-68.288-5.12-1.6-5.888-1.856-5.888-23.104 0-17.472 7.168-35.2 14.208-50.112 7.616-16.256 16.704-43.584 19.968-67.968 9.152-10.56 21.44-31.36 29.376-70.912 6.976-34.944 3.712-47.616-0.896-59.584-0.512-1.28-1.024-2.496-1.344-3.712-1.728-8.256 0.64-50.752 6.656-83.776 4.096-22.656-1.024-70.784-32.192-110.656-19.712-25.152-57.344-56.064-126.208-60.352l-37.76 0.064C428.544 180.096 390.912 211.072 371.2 236.16 340.032 275.968 334.848 324.16 339.008 346.816 345.024 379.84 347.392 422.336 345.6 430.336 345.344 431.744 344.768 433.024 344.256 434.24 339.712 446.208 336.448 458.88 343.36 493.824c7.936 39.552 20.288 60.352 29.376 70.912 3.264 24.448 12.288 51.776 19.968 67.968 5.568 11.904 8.192 28.032 8.192 50.944 0 21.248-0.832 21.44-5.568 22.976-61.888 18.24-160.384 53.824-197.056 69.952-60.352-71.552-96.96-163.904-96.96-264.576 0-226.432 184.256-410.688 410.688-410.688s410.688 184.256 410.688 410.688C922.688 611.712 886.912 703.104 827.776 774.336z" fill="#e6e6e6" /></svg>