<?xml version="1.0" standalone="no"?><!DOCTYPE svg PUBLIC "-//W3C//DTD SVG 1.1//EN" "http://www.w3.org/Graphics/SVG/1.1/DTD/svg11.dtd"><svg class="icon" width="16px" height="16.00px" viewBox="0 0 1024 1024" version="1.1" xmlns="http://www.w3.org/2000/svg"><path d="M638.976 372.736c6.144 0 14.336 0 20.48 2.048-18.432-88.064-112.64-153.6-219.136-153.6-118.784 0-217.088 81.92-217.088 184.32 0 59.392 32.768 108.544 86.016 147.456l-22.528 65.536 75.776-38.912c26.624 6.144 49.152 10.24 75.776 10.24 6.144 0 14.336 0 20.48 0-4.096-14.336-6.144-30.72-6.144-45.056C454.656 450.56 536.576 372.736 638.976 372.736zM522.24 315.392c16.384 0 26.624 10.24 26.624 26.624 0 16.384-10.24 26.624-26.624 26.624-16.384 0-32.768-10.24-32.768-26.624C489.472 325.632 505.856 315.392 522.24 315.392zM370.688 368.64c-16.384 0-32.768-10.24-32.768-26.624 0-16.384 16.384-26.624 32.768-26.624 16.384 0 26.624 10.24 26.624 26.624C397.312 358.4 387.072 368.64 370.688 368.64z"  /><path d="M837.632 542.72c0-86.016-86.016-157.696-184.32-157.696-104.448 0-184.32 71.68-184.32 157.696 0 88.064 81.92 157.696 184.32 157.696 22.528 0 43.008-6.144 65.536-10.24l59.392 32.768-16.384-55.296C804.864 634.88 837.632 591.872 837.632 542.72zM593.92 516.096c-10.24 0-22.528-10.24-22.528-22.528 0-10.24 10.24-22.528 22.528-22.528 16.384 0 26.624 10.24 26.624 22.528C620.544 505.856 610.304 516.096 593.92 516.096zM712.704 516.096c-10.24 0-22.528-10.24-22.528-22.528 0-10.24 10.24-22.528 22.528-22.528 16.384 0 26.624 10.24 26.624 22.528C739.328 505.856 729.088 516.096 712.704 516.096z"  /></svg>